<svg xmlns="http://www.w3.org/2000/svg" width="515.14" height="299.663" viewBox="0 0 515.14 299.663"><defs><clipPath id="a" clipPathUnits="userSpaceOnUse"><path d="M-289.29 312.665h612.283V-249.14H-289.29Z"/></clipPath><clipPath id="b" clipPathUnits="userSpaceOnUse"><path d="M-328.272 303.8H284.01v-561.805h-612.283Z"/></clipPath><clipPath id="c" clipPathUnits="userSpaceOnUse"><path d="M-380.943 304.843H231.34v-561.805h-612.283Z"/></clipPath><clipPath id="d" clipPathUnits="userSpaceOnUse"><path d="M-384.92 293.566h612.284V-268.24H-384.92Z"/></clipPath><clipPath id="e" clipPathUnits="userSpaceOnUse"><path d="M-331.238 272.64h612.283v-561.804h-612.283Z"/></clipPath><clipPath id="f" clipPathUnits="userSpaceOnUse"><path d="M-438.503 297.868H173.78v-561.805h-612.283Z"/></clipPath></defs><path d="M0 0c-.913-.13-2.868-2.216-2.738-3.259.131-1.043 3.129-2.869 3.911-5.998.783-3.128-.26-7.431-1.825-11.733s-3.781-6.519-8.344-8.083-5.997-4.824-8.213-7.692c-2.217-2.868-3.26-7.953-2.738-10.821s2.477-9.648 2.477-12.646 2.347-4.824 5.997-7.041c3.651-2.216 10.169-5.736 13.037-4.432s4.694 2.607 6.78 2.737c2.086.131 3.39.783 4.041 2.738s2.347 3.52 4.564 5.476 2.998 3.39 3.129 5.606 2.607 6.91 3.259 10.169 2.998 6.649 3.65 11.603c.652 4.955.261 4.694 1.043 6.258.783 1.565.783 2.869.391 4.694-.391 1.825.522 2.998.652 4.954.131 1.956.391 6.91-.912 7.562-1.304.651-2.086 1.955-2.477 3.259-.392 1.304-1.826 2.607-3.651 2.738s-2.086.521-3.259 1.564-1.956 1.174-4.042 1.043c-2.086-.13-3.65.783-3.911 1.434-.261.652-1.173 1.174-1.956.913s-2.477-.13-2.998.913S4.563 3.39 3.65 2.999c-.912-.392-2.086-1.304-2.086-1.304S4.693.13 3.259-.391C1.825-.913 0 0 0 0" clip-path="url(#a)" style="fill:#231916;fill-opacity:1;fill-rule:nonzero;stroke:none" transform="matrix(1.33333 0 0 -1.33333 234.034 186.257)"/><path d="M0 0c-3.122.247-4.302-1.304-4.563-2.607s-1.956-2.608-1.695-3.651.782-2.347.913-3.259c.13-.913 1.173-1.174 1.825-.782s1.564.912 3.259.651c1.695-.26 4.172-.521 5.997-6.258 1.826-5.736 6.128-22.815 12.647-34.548 6.518-11.734 14.862-23.859 27.378-31.16s28.161-9.387 44.848-11.473c16.688-2.086 27.118.261 29.204 1.435s6.388 2.868 9.517 4.693 9.648 2.738 9.648 5.736c0 2.999.261 6.258-.782 6.519s-2.086 1.173-.913 2.738c1.174 1.564-.521 2.998 1.695 4.563s2.999 3.52 2.868 5.215c-.13 1.695-1.825.13-2.477.521-.652.392 0 2.869-.521 2.999-.522.13-.652 1.434-.652 2.999 0 1.564-1.043 1.564-1.825 2.346-.783.783-1.174 1.304-.261 2.086.912.783.782 2.477.782 2.477s-3.52 0-4.954-.782-1.825-.521-2.608.391c-.782.913-1.694 1.174-3.52 1.043-1.825-.13-.912 3.651-2.477 4.303-1.564.651-1.173 2.216-1.564 3.65s-1.304 5.867-1.826 8.214c-.521 2.346-1.434 2.346-1.303 6.518.13 4.172-.261 7.823-.522 7.431-.26-.391-1.955-8.604-2.998-13.558s-4.955-19.687-9.126-23.989c-4.172-4.302-11.082-4.954-19.817-5.085-8.735-.13-20.469 1.043-25.162 2.608-4.694 1.564-11.734 7.04-14.993 9.647s-8.735 8.475-11.995 12.386-6.388 10.169-6.518 14.08c-.131 3.911-.391 11.082-2.999 14.341C21.903-4.302 13.168-1.043 0 0" clip-path="url(#b)" style="fill:#231916;fill-opacity:1;fill-rule:nonzero;stroke:none" transform="matrix(1.33333 0 0 -1.33333 286.01 174.436)"/><path d="M0 0s-1.173-2.607-1.564-3.781c0 0-2.608.261-2.869-.521-.26-.783-1.173-4.042-2.607-5.476s-.652-7.692.521-10.299c1.174-2.608 3.129-5.867 3.781-7.693S-.782-31.29 0-31.681s1.173-2.738 1.434-3.911 2.608-4.693 6.128-5.476c3.52-.782 6.258.261 10.43 1.956s13.298 6.779 14.21 7.822 1.956 2.608 3.651 3.39 1.434 1.695.391 1.956-.978 1.532.782 3.096 2.151 2.64.684 2.347-2.248 0-1.857 1.564-.294 1.956-1.174 1.76-.977 1.076.196 2.151c1.173 1.076 1.075 2.738 2.835 3.912s4.596 3.226 5.085 5.084 3.422 3.716 4.107 5.671c0 0-3.422-2.933-7.627-4.889-4.205-1.955-14.178-6.746-18.578-7.431s-12.321-.586-13.885-.586S3.39-10.723 2.705-9.55C2.021-8.376.717-4.628 0 0" clip-path="url(#c)" style="fill:#231916;fill-opacity:1;fill-rule:nonzero;stroke:none" transform="matrix(1.33333 0 0 -1.33333 356.238 175.827)"/><path d="M0 0s2.347.782 5.085.587 4.4-.685 4.497-1.858c.098-1.174.685-2.249 1.956-2.542 1.271-.294 2.836-.88 3.227-1.858s.586-2.64 1.858-2.934c1.271-.293 2.737-1.075 2.249-1.564-.489-.489-3.032-1.173-3.032-1.173s2.543.097 2.738-.783c.196-.88-.586-2.738-1.075-3.226-.489-.489-.587-1.467.586-1.272s2.151.978 2.347-.391.782-.978.978-.489 1.075 1.272 2.249 1.467c1.173.196 1.271-1.076 1.075-1.858s1.271-.586 1.858-1.858c.587-1.271 1.174-1.466 2.151-1.466.978 0 4.303 1.369 4.303 1.369s2.249 4.302 4.986 7.724c2.738 3.423 2.64 4.791 2.934 6.747.293 1.956 5.769 10.756 6.649 14.276s4.596 8.702 5.182 10.462.782 2.836.196 3.423c-.587.586-.88.88-.294 2.249s1.272 2.933.196 3.52c-1.076.586-1.076 2.249-.587 2.64s.489.88.783 2.64c.293 1.76-.196 3.618 1.075 5.084 1.271 1.467 3.618 3.716 3.618 3.716s-1.467 1.173-.88 2.738 2.053 1.858 1.956 3.129c-.098 1.271-.294 2.151.782 3.227 1.075 1.075 4.595 7.92 5.573 11.635.978 3.716.685 6.258 2.347 9.583 1.662 3.324 1.467 16.329.88 18.187s-4.791 11.147-7.725 15.058-14.178 10.365-18.48 12.712-6.258 1.662-7.92 1.368-9.583-1.76-17.112-1.564-14.765-1.173-19.36-2.347c-4.596-1.173-30.703-8.116-33.93-9.093s-5.964-.098-6.649.586c-.684.685-.88 2.738-2.64 2.934-1.76.195-8.605-.685-12.027-1.565s-4.693-.782-5.573-.391-4.4.098-5.574-.782-4.204-2.151-6.649-4.009c-2.444-1.858-3.422-5.378-2.053-6.356s2.542-2.444 2.346-4.4c-.195-1.955.978-1.467 1.174-4.204.195-2.738.489-4.303 1.075-7.529.587-3.227.978-4.303.88-6.552s-.391-3.715 1.663-6.258c2.053-2.542 12.027-11.635 16.036-13.2s10.755-1.076 16.329-.88 14.667 2.347 20.436 5.085 9.974 5.671 10.56 6.453-1.662 1.467.294 2.64 3.031 1.173 3.226 2.445c.196 1.271.685 1.857 2.054 2.346s3.031 2.054 4.498 3.52c0 0-4.107-1.466-4.792-1.466s.391 1.271 1.174 2.053.88 1.662.489 1.662c-.392 0-1.858.391 1.173 1.858s10.854 4.889 13.102 6.454c0 0-9.289-3.032-10.755-3.227-1.467-.196 0 1.564 4.498 3.618 4.497 2.053 16.166 8.311 16.166 8.311S9.778 91.424 6.649 90.153s-5.085-3.129-8.018-4.595c-2.933-1.467-4.009-.62-2.347.162 1.663.783 31.388 12.647 33.539 13.625 0 0-21.707-6.65-27.965-8.996s-10.072-4.107-10.169-3.031c-.098 1.075 2.933 3.031 10.951 5.964s21.316 7.334 24.249 8.409c2.934 1.076 6.063.391 6.552-.684s.293-4.987-.098-6.649c-.391-1.663-.196-5.183-.196-9.974s.489-21.316-.782-31.583-7.627-25.227-10.56-28.845-3.716-5.28-7.431-11.733c-3.716-6.454-4.303-6.65-7.921-7.432C2.836 4.009 2.347 2.347 0 0" clip-path="url(#d)" style="fill:#231916;fill-opacity:1;fill-rule:nonzero;stroke:none" transform="matrix(1.33333 0 0 -1.33333 361.54 160.79)"/><path d="M0 0c-4.693-1.076-7.138-.587-7.04 3.813s1.271 9.094 7.333 9.583c3.71.299 11.223.559 18.022.337a17 17 0 0 0-.91-1.022C14.863 10.169 4.694 1.076 0 0m60.33 8.507c-3.911 5.28-5.378 6.062-7.235 6.453-.172.036-.476.145-.894.309 1.718 1.912 3.204 3.723 4.12 5.167 3.227 5.085 5.965 11.929 5.085 13.396s-8.311 4.009-16.818 5.378c-4.851.78-8.312.684-9.68 0-1.369-.685-1.369-2.151-2.836-5.476-.727-1.649-3.716-6.207-6.853-10.694-1.2.052-2.376.037-3.512-.062-12.418-1.075-22-5.769-25.52-8.115S-9.68 8.018-9.778 4.987c0 0-1.564-.098-1.271 2.542l.293 2.64s-2.053-1.662-2.738-6.062c-.684-4.4 1.565-8.312 3.52-9.974s3.423-2.64 6.063-3.031 5.182-.293 5.182-.293-.978-1.076-2.542-1.76c0 0 3.618-.196 7.04 1.173 0 0-.489-1.173-1.467-1.76 0 0 2.445.587 4.987.88s2.445 0 5.965.88 7.04 1.956 9.973 4.302c0 0-.391-2.933-6.16-4.987 0 0 4.791.685 8.214 3.423S36.472.098 39.699 2.933c.381.335.865.771 1.417 1.275 1.336-1.403 2.321-2.532 2.787-2.937C45.37 0 46.934-1.173 46.348-2.053s-5.769-3.52-5.769-3.52 2.542.195 3.813.391c1.271.195 1.858-.489 2.64-.489s4.889 1.075 4.987.391c.098-.685 0-1.271 1.271-1.174 1.271.098 2.054 0 4.498-1.857 2.445-1.858 4.4-2.934 6.356-2.054s5.182 3.129 5.28 4.205c.098 1.075-5.182 9.387-9.094 14.667" clip-path="url(#e)" style="fill:#231916;fill-opacity:1;fill-rule:nonzero;stroke:none" transform="matrix(1.33333 0 0 -1.33333 289.964 132.89)"/><path d="M0 0s2.836-3.031 2.151-3.227c-.684-.195-3.227.196-3.715-.293-.489-.489-.783-1.369.391-1.662C0-5.476 4.205-6.062 7.236-9.485s8.311-9.289 9.191-11.733 2.64-2.64 3.52-3.618.88-4.596 1.662-5.574c.783-.977 2.152-1.662 1.272-2.835s-1.761-3.618-1.467-3.423c.293.196 2.835 2.934 3.52 1.761.684-1.174-.489-2.543-.782-3.423s-5.085-4.987-5.085-4.987 3.325.294 5.671 2.054 4.303 2.542 4.498 1.858c.196-.685 1.174-1.076 1.467-.88.293.195 1.76 1.369 2.738 1.075.978-.293 1.466-.88 1.564-2.347.098-1.466-.195-3.324 1.174-3.422s1.857 1.076 1.76 2.151c-.098 1.076-.489 1.271.097 1.858.587.587 1.272 2.151 2.054.489s3.52-2.444 5.378-3.324 2.835-.098 4.204-.978 3.52-1.076 4.694-.489 1.858.587 3.031.489 1.075 1.173 1.369 1.858c.293.684 1.369.488 1.271 2.737s-1.76 3.032-.098 3.912 1.858 2.346 1.565 3.617c-.294 1.272-1.956 2.054-1.467 3.423s-2.738 9.387-8.311 13.493c-5.574 4.107-9.387 5.574-11.147 6.649s-4.205 3.227-7.04 3.032c-2.836-.196-4.205-.196-6.943 1.466-2.738 1.663-5.964 1.76-8.409 1.858-2.444.098-2.64.489-7.529.587S2.933-.489 0 0" clip-path="url(#f)" style="fill:#231916;fill-opacity:1;fill-rule:nonzero;stroke:none" transform="matrix(1.33333 0 0 -1.33333 432.984 166.527)"/><text xml:space="preserve" transform="translate(70.121 65.89)scale(1.33333)"><tspan x="0" y="0" style="font-variant:normal;font-weight:700;font-stretch:normal;font-size:25.939px;font-family:HiraMinProN-W6;writing-mode:lr-tb;fill:#231916;fill-opacity:1;fill-rule:nonzero;stroke:none">BAR</tspan></text><text xml:space="preserve" transform="translate(-2.128 120.915)scale(1.33333)"><tspan x="0" y="0" dx="0 2.99914 2.99914 2.99914 2.99914 2.99914 2.99914" style="font-variant:normal;font-weight:700;font-stretch:normal;font-size:29.9914px;font-family:HiraMinProN-W6;writing-mode:lr-tb;fill:#231916;fill-opacity:1;fill-rule:nonzero;stroke:none">SHINOBU</tspan></text><text xml:space="preserve" transform="translate(29.729 151.89)scale(1.33333)"><tspan x="0" y="0" dx="0 0 0 0 0 0 0 0 0 0 0 0 0 -0.43645999" style="font-variant:normal;font-weight:300;font-stretch:normal;font-size:10.9115px;font-family:HiraMinProN-W3;writing-mode:lr-tb;fill:#231916;fill-opacity:1;fill-rule:nonzero;stroke:none">SINCE 2025 NYANPAI</tspan><tspan x="8.631" y="37.536" style="font-variant:normal;font-weight:300;font-stretch:normal;font-size:10.9115px;font-family:HiraMinProN-W3;writing-mode:lr-tb;fill:#231916;fill-opacity:1;fill-rule:nonzero;stroke:none">AGED</tspan></text><text xml:space="preserve" transform="translate(88.342 204.214)scale(1.33333)"><tspan x="0" y="0" style="font-variant:normal;font-weight:300;font-stretch:normal;font-size:22.8283px;font-family:HiraMinProN-W3;writing-mode:lr-tb;fill:#231916;fill-opacity:1;fill-rule:nonzero;stroke:none">60</tspan></text><text xml:space="preserve" transform="translate(122.355 201.942)scale(1.33333)"><tspan x="0" y="0" style="font-variant:normal;font-weight:300;font-stretch:normal;font-size:10.9115px;font-family:HiraMinProN-W3;writing-mode:lr-tb;fill:#231916;fill-opacity:1;fill-rule:nonzero;stroke:none"> YEARS</tspan></text></svg>